<svg width="200" height="204" viewBox="0 0 200 204" fill="none" xmlns="http://www.w3.org/2000/svg">
<path d="M193.475 39.9394V102V163.907C193.475 164.004 193.429 164.094 193.351 164.15L147.082 197.655C146.884 197.799 146.606 197.657 146.606 197.412V136.527C146.606 136.282 146.329 136.14 146.13 136.284L99.9135 169.751C99.8085 169.827 99.6666 169.827 99.5616 169.751L53.3447 136.284C53.1464 136.14 52.8688 136.282 52.8688 136.527V197.412C52.8688 197.657 52.5912 197.799 52.3928 197.655L6.12405 164.15C6.04613 164.094 6 164.004 6 163.907V102V39.9394M193.475 39.9394L146.782 6.12741C146.677 6.05139 146.535 6.05139 146.43 6.12741L99.9135 39.812C99.8085 39.888 99.6666 39.888 99.5616 39.812L53.0447 6.12741C52.9397 6.05139 52.7978 6.05139 52.6928 6.12741L6 39.9394M193.475 39.9394L146.606 73.8788L99.9135 107.691C99.8085 107.767 99.6666 107.767 99.5616 107.691L52.8688 73.8788L6 39.9394" stroke="white" stroke-width="12"/>
</svg>
