<svg width="34" height="34" viewBox="0 0 34 34" fill="none" xmlns="http://www.w3.org/2000/svg">
<path d="M32.2458 6.65656V17V27.3179C32.2458 27.3339 32.2382 27.349 32.2252 27.3584L24.5137 32.9426C24.4807 32.9665 24.4344 32.9429 24.4344 32.9021V22.7545C24.4344 22.7137 24.3881 22.6901 24.3551 22.714L16.6522 28.2919C16.6348 28.3046 16.6111 28.3046 16.5936 28.2919L8.89079 22.714C8.85773 22.6901 8.81146 22.7137 8.81146 22.7545V32.9021C8.81146 32.9429 8.7652 32.9665 8.73214 32.9426L1.02067 27.3584C1.00769 27.349 1 27.3339 1 27.3179V17V6.65656M32.2458 6.65656L24.4637 1.02124C24.4462 1.00857 24.4226 1.00857 24.4051 1.02124L16.6523 6.63533C16.6348 6.648 16.6111 6.648 16.5936 6.63533L8.84079 1.02124C8.82329 1.00857 8.79963 1.00857 8.78214 1.02124L1 6.65656M32.2458 6.65656L24.4344 12.3131L16.6523 17.9485C16.6348 17.9611 16.6111 17.9611 16.5936 17.9485L8.81146 12.3131L1 6.65656" stroke="white" stroke-width="2"/>
</svg>
